<mxfile host="app.diagrams.net" modified="2023-05-23T16:18:55.870Z" agent="Mozilla/5.0 (X11; Ubuntu; Linux x86_64; rv:109.0) Gecko/20100101 Firefox/113.0" etag="ZkvFLH3bSxlqDnPl5-4R" version="21.3.3" type="device">
  <diagram name="Page-1" id="8POsvt6v3vEnsZOyPEkg">
    <mxGraphModel dx="989" dy="548" grid="1" gridSize="10" guides="1" tooltips="1" connect="1" arrows="1" fold="1" page="1" pageScale="1" pageWidth="850" pageHeight="1100" math="0" shadow="0">
      <root>
        <mxCell id="0" />
        <mxCell id="1" parent="0" />
        <mxCell id="_EQOijI5BdJQEYijOvms-3" value="" style="ellipse;whiteSpace=wrap;html=1;aspect=fixed;" vertex="1" parent="1">
          <mxGeometry x="430" y="270" width="20" height="20" as="geometry" />
        </mxCell>
        <mxCell id="_EQOijI5BdJQEYijOvms-5" value="" style="verticalLabelPosition=bottom;verticalAlign=top;html=1;shape=mxgraph.basic.arc;startAngle=0.08118903317540314;endAngle=0.19192227646941762;strokeWidth=2;fillColor=#FF0000;strokeColor=#FF0000;" vertex="1" parent="1">
          <mxGeometry x="130" y="330" width="100" height="100" as="geometry" />
        </mxCell>
        <mxCell id="_EQOijI5BdJQEYijOvms-6" value="" style="endArrow=classic;html=1;rounded=0;strokeWidth=3;" edge="1" parent="1">
          <mxGeometry width="50" height="50" relative="1" as="geometry">
            <mxPoint x="180" y="380" as="sourcePoint" />
            <mxPoint x="440" y="280" as="targetPoint" />
          </mxGeometry>
        </mxCell>
        <mxCell id="_EQOijI5BdJQEYijOvms-7" value="" style="endArrow=none;dashed=1;html=1;dashPattern=1 3;strokeWidth=2;rounded=0;" edge="1" parent="1">
          <mxGeometry width="50" height="50" relative="1" as="geometry">
            <mxPoint x="140" y="380" as="sourcePoint" />
            <mxPoint x="220" y="380" as="targetPoint" />
          </mxGeometry>
        </mxCell>
        <mxCell id="_EQOijI5BdJQEYijOvms-8" value="" style="endArrow=classic;html=1;rounded=0;strokeWidth=3;strokeColor=#FF0000;" edge="1" parent="1">
          <mxGeometry width="50" height="50" relative="1" as="geometry">
            <mxPoint x="180" y="381.7" as="sourcePoint" />
            <mxPoint x="235" y="280" as="targetPoint" />
          </mxGeometry>
        </mxCell>
        <mxCell id="_EQOijI5BdJQEYijOvms-12" value="&lt;font style=&quot;font-size: 20px;&quot;&gt;e&lt;/font&gt;" style="text;html=1;strokeColor=none;fillColor=none;align=center;verticalAlign=middle;whiteSpace=wrap;rounded=0;" vertex="1" parent="1">
          <mxGeometry x="195" y="320" width="50" height="30" as="geometry" />
        </mxCell>
        <mxCell id="_EQOijI5BdJQEYijOvms-15" value="" style="endArrow=classic;html=1;rounded=0;strokeColor=#FF3333;strokeWidth=2;" edge="1" parent="1">
          <mxGeometry width="50" height="50" relative="1" as="geometry">
            <mxPoint x="180" y="380" as="sourcePoint" />
            <mxPoint x="260" y="416.9230769230769" as="targetPoint" />
          </mxGeometry>
        </mxCell>
        <mxCell id="_EQOijI5BdJQEYijOvms-16" value="Vf" style="text;html=1;strokeColor=none;fillColor=none;align=center;verticalAlign=middle;whiteSpace=wrap;rounded=0;" vertex="1" parent="1">
          <mxGeometry x="210" y="260" width="20" height="20" as="geometry" />
        </mxCell>
        <mxCell id="_EQOijI5BdJQEYijOvms-17" value="" style="endArrow=classic;html=1;rounded=0;fontSize=5;endSize=2;exitX=0.25;exitY=0;exitDx=0;exitDy=0;" edge="1" parent="1" source="_EQOijI5BdJQEYijOvms-16">
          <mxGeometry width="50" height="50" relative="1" as="geometry">
            <mxPoint x="212.5" y="260" as="sourcePoint" />
            <mxPoint x="227.5" y="260" as="targetPoint" />
          </mxGeometry>
        </mxCell>
        <mxCell id="_EQOijI5BdJQEYijOvms-18" value="" style="endArrow=classic;html=1;rounded=0;fontSize=5;endSize=2;" edge="1" parent="1">
          <mxGeometry width="50" height="50" relative="1" as="geometry">
            <mxPoint x="202.5" y="400" as="sourcePoint" />
            <mxPoint x="217.5" y="400" as="targetPoint" />
          </mxGeometry>
        </mxCell>
        <mxCell id="_EQOijI5BdJQEYijOvms-19" value="Vs" style="text;html=1;strokeColor=none;fillColor=none;align=center;verticalAlign=middle;whiteSpace=wrap;rounded=0;" vertex="1" parent="1">
          <mxGeometry x="200" y="400" width="20" height="20" as="geometry" />
        </mxCell>
        <mxCell id="_EQOijI5BdJQEYijOvms-20" value="P = (a,b)" style="text;html=1;strokeColor=none;fillColor=none;align=center;verticalAlign=middle;whiteSpace=wrap;rounded=0;" vertex="1" parent="1">
          <mxGeometry x="130" y="380" width="60" height="30" as="geometry" />
        </mxCell>
        <mxCell id="_EQOijI5BdJQEYijOvms-24" value="T = (c,d) " style="text;html=1;strokeColor=none;fillColor=none;align=center;verticalAlign=middle;whiteSpace=wrap;rounded=0;" vertex="1" parent="1">
          <mxGeometry x="400" y="300" width="60" height="20" as="geometry" />
        </mxCell>
        <mxCell id="_EQOijI5BdJQEYijOvms-27" value="" style="ellipse;whiteSpace=wrap;html=1;aspect=fixed;" vertex="1" parent="1">
          <mxGeometry x="350" y="230" width="20" height="20" as="geometry" />
        </mxCell>
        <mxCell id="_EQOijI5BdJQEYijOvms-26" value="" style="endArrow=classic;html=1;rounded=0;strokeColor=#FF3333;strokeWidth=2;" edge="1" parent="1">
          <mxGeometry width="50" height="50" relative="1" as="geometry">
            <mxPoint x="440" y="280" as="sourcePoint" />
            <mxPoint x="360" y="240" as="targetPoint" />
          </mxGeometry>
        </mxCell>
        <mxCell id="_EQOijI5BdJQEYijOvms-28" value="T&#39; = (c&#39;,d&#39;) " style="text;html=1;strokeColor=none;fillColor=none;align=center;verticalAlign=middle;whiteSpace=wrap;rounded=0;" vertex="1" parent="1">
          <mxGeometry x="330" y="260" width="70" height="20" as="geometry" />
        </mxCell>
        <mxCell id="_EQOijI5BdJQEYijOvms-29" value="" style="endArrow=classic;html=1;rounded=0;strokeWidth=3;" edge="1" parent="1">
          <mxGeometry width="50" height="50" relative="1" as="geometry">
            <mxPoint x="180" y="380" as="sourcePoint" />
            <mxPoint x="360" y="240" as="targetPoint" />
          </mxGeometry>
        </mxCell>
        <mxCell id="_EQOijI5BdJQEYijOvms-22" value="" style="ellipse;whiteSpace=wrap;html=1;aspect=fixed;" vertex="1" parent="1">
          <mxGeometry x="175" y="375" width="10" height="10" as="geometry" />
        </mxCell>
        <mxCell id="_EQOijI5BdJQEYijOvms-30" value="" style="verticalLabelPosition=bottom;verticalAlign=top;html=1;shape=mxgraph.basic.arc;startAngle=0.06687638404188566;endAngle=0.15240501928634548;strokeWidth=2;fillColor=#FF0000;strokeColor=#FF0000;" vertex="1" parent="1">
          <mxGeometry x="130" y="300" width="130" height="130" as="geometry" />
        </mxCell>
        <mxCell id="_EQOijI5BdJQEYijOvms-31" value="&lt;font style=&quot;font-size: 20px;&quot;&gt;e&#39;&lt;/font&gt;" style="text;html=1;strokeColor=none;fillColor=none;align=center;verticalAlign=middle;whiteSpace=wrap;rounded=0;" vertex="1" parent="1">
          <mxGeometry x="220" y="290" width="45" height="30" as="geometry" />
        </mxCell>
        <mxCell id="_EQOijI5BdJQEYijOvms-34" value="" style="endArrow=classic;html=1;rounded=0;fontSize=5;endSize=2;" edge="1" parent="1">
          <mxGeometry width="50" height="50" relative="1" as="geometry">
            <mxPoint x="402.5" y="240" as="sourcePoint" />
            <mxPoint x="417.5" y="240" as="targetPoint" />
          </mxGeometry>
        </mxCell>
        <mxCell id="_EQOijI5BdJQEYijOvms-35" value="Vs_180" style="text;html=1;strokeColor=none;fillColor=none;align=center;verticalAlign=middle;whiteSpace=wrap;rounded=0;" vertex="1" parent="1">
          <mxGeometry x="400" y="240" width="20" height="20" as="geometry" />
        </mxCell>
      </root>
    </mxGraphModel>
  </diagram>
</mxfile>
